<svg width="113" height="113" viewBox="0 0 113 113" fill="none" xmlns="http://www.w3.org/2000/svg">
<g clip-path="url(#clip0_264_2598)">
<path d="M79.5954 8.69363C79.3869 8.66925 79.1702 8.6518 78.955 8.64135C70.2826 9.05544 64.4083 17.7545 62.6637 25.8738C60.7058 33.1935 62.6186 43.1753 70.2741 45.8728C71.3873 46.2478 72.586 46.2992 73.7437 46.1303C83.6564 44.0648 89.4192 32.9556 89.309 23.1184C89.7229 16.8268 86.0795 9.45201 79.5954 8.69363ZM43.6139 4.40732C38.3254 3.85427 33.4968 8.86941 31.9813 13.9782C28.8728 24.0858 31.7258 37.5199 41.6691 42.1424C42.613 42.4879 43.6132 42.6408 44.6155 42.6116C51.7837 42.312 55.8168 34.5399 56.3827 27.9125C57.3055 19.1945 54.2676 8.57846 45.8967 5.00186C45.1303 4.67932 44.3687 4.48625 43.6139 4.40732ZM98.6771 41.4473C89.4876 40.8261 82.0052 49.4578 79.963 58.1617C77.9293 64.3656 80.0842 73.302 87.0089 74.7223C96.77 75.8678 104.831 65.9198 106.319 56.6489C107.739 50.5749 105.221 42.6481 98.6771 41.4473ZM18.6095 33.1396C14.7355 32.5994 10.6065 34.5147 8.80536 38.4426C3.99555 48.9545 8.97665 63.7116 19.8468 67.4704C24.4009 68.9064 28.9814 65.7232 30.7217 61.4001C34.4183 52.1498 30.8362 40.3836 22.8875 34.9294C21.6058 33.9401 20.1258 33.3499 18.6095 33.1396ZM56.9179 58.1074C49.3119 57.133 41.0673 60.1331 35.3662 65.4564C29.1411 71.7159 23.7301 79.2384 20.8818 87.7897C17.9881 93.834 21.7323 101.716 28.2283 102.608C36.0205 103.852 43.469 99.1509 51.2993 99.7523C58.0337 99.5685 63.4765 103.901 69.1056 107.009C73.864 109.911 80.9553 109.961 84.2703 104.652C87.0479 99.1645 84.8626 92.6378 83.0564 87.2075C79.0942 78.2553 74.8252 68.8332 67.2297 62.5755C64.1933 60.0106 60.6331 58.5844 56.9179 58.1074Z" fill="white"/>
</g>
<defs>
<clipPath id="clip0_264_2598">
<rect width="100" height="100" fill="white" transform="translate(12.9315) rotate(7.43)"/>
</clipPath>
</defs>
</svg>
