<svg width="230" height="230" viewBox="0 0 230 230" fill="none" xmlns="http://www.w3.org/2000/svg">
<g clip-path="url(#clip0_264_2213)">
<path d="M66.2742 118.269C62.0106 111.468 54.0177 102.235 54.0177 94.2698C54.0177 89.7696 57.5575 83.902 62.6292 82.5962C62.2258 75.8619 61.9621 69.0196 61.9621 62.2533C61.9621 58.2463 62.0376 54.2015 62.1885 50.2323C63.7639 32.2428 76.6304 19.5523 92.9564 13.591C99.5038 11.1999 96.3305 0.15439 103.514 0.00904936C120.299 -0.426524 147.892 14.9594 158.657 26.633C165.508 34.2214 169.421 44.0425 169.649 54.2749L168.966 83.7184C171.951 84.4478 175.286 86.7814 176.024 89.771C178.319 99.0638 168.693 110.63 164.219 118.02C160.088 124.843 144.316 146.913 144.302 147.066C144.227 147.863 144.635 148.877 145.719 150.502C170.207 184.217 230 162.944 230 230L0 230C2.68964e-06 162.902 59.8135 184.218 84.2811 150.503C85.4899 148.723 86.042 147.763 86.0285 146.982C86.0214 146.563 67.8972 120.857 66.2742 118.269Z" fill="#A9A9A9"/>
</g>
<defs>
<clipPath id="clip0_264_2213">
<rect width="230" height="230" fill="white"/>
</clipPath>
</defs>
</svg>
