<svg width="125" height="125" viewBox="0 0 125 125" fill="none" xmlns="http://www.w3.org/2000/svg">
<g clip-path="url(#clip0_264_2555)">
<path d="M60.5201 115.263C60.7201 115.199 60.9246 115.126 61.1249 115.046C68.8522 111.088 70.6097 100.739 68.8454 92.6239C67.6056 85.149 61.7413 76.8481 53.6552 77.553C52.4864 77.6711 51.3735 78.1194 50.3889 78.7513C42.2139 84.7262 41.5534 97.2237 45.7164 106.137C47.9378 112.038 54.3016 117.25 60.5201 115.263ZM95.0601 104.307C100.105 102.627 102.431 96.0652 101.702 90.7865C100.359 80.2974 92.2122 69.2406 81.2474 69.1371C80.2451 69.2123 79.271 69.486 78.3703 69.9266C71.9656 73.1597 71.5022 81.9037 73.7238 88.1733C76.4838 96.4942 83.6347 104.908 92.7355 104.708C93.5667 104.686 94.34 104.547 95.0601 104.307ZM29.615 93.3133C38.2408 90.084 41.4906 79.1327 39.756 70.3623C39.0461 63.8723 33.3929 56.6234 26.4998 58.1897C17.1369 61.1776 13.9041 73.5665 16.3775 82.6245C17.5926 88.7428 23.1591 94.9223 29.615 93.3133ZM105.967 67.8132C109.718 66.7052 112.687 63.2557 112.706 58.9346C112.745 47.3747 102.114 35.9918 90.6619 37.0577C85.9213 37.6306 83.0643 42.4213 83.2646 47.0773C83.7182 57.0285 91.8397 66.2651 101.331 67.9499C102.907 68.3215 104.499 68.2479 105.967 67.8132ZM60.7666 60.8946C68.096 58.6409 74.3657 52.5037 77.3595 45.3011C80.4439 37.0295 82.2653 27.9438 81.3278 18.9795C81.4671 12.2797 74.802 6.64767 68.5174 8.51788C60.9072 10.6033 56.0648 17.9605 48.6851 20.6466C42.6277 23.595 35.8813 21.8967 29.4712 21.391C23.9391 20.7133 17.46 23.5961 16.6337 29.8008C16.3702 35.9453 21.0558 40.987 24.9433 45.1866C32.249 51.7035 40.0281 58.5215 49.5299 61.0839C53.3545 62.1658 57.1859 61.9945 60.7666 60.8946Z" fill="#3894D9"/>
</g>
<defs>
<clipPath id="clip0_264_2555">
<rect width="100" height="100" fill="white" transform="translate(124.824 95.6498) rotate(163.038)"/>
</clipPath>
</defs>
</svg>
