<svg width="138" height="138" viewBox="0 0 138 138" fill="none" xmlns="http://www.w3.org/2000/svg">
<g clip-path="url(#clip0_264_2564)">
<path d="M34.6553 28.082C34.5495 28.2634 34.4468 28.455 34.351 28.648C31.2585 36.7608 36.8782 45.6265 43.62 50.4757C49.5437 55.2003 59.4564 57.4437 64.9931 51.5084C65.7825 50.6385 66.3094 49.5606 66.6182 48.4321C68.694 38.5215 60.8211 28.7931 51.7625 24.9558C46.1627 22.0577 37.9461 22.4439 34.6553 28.082ZM16.3223 59.3382C13.6983 63.963 16.3609 70.3954 20.4356 73.8295C28.4534 80.7246 41.9061 83.4886 50.1228 76.2275C50.8172 75.5009 51.3578 74.6455 51.7323 73.7154C54.3276 67.0268 48.8201 60.2194 42.9736 57.0475C35.3542 52.7117 24.4098 51.2454 17.7811 57.4843C17.1787 58.0575 16.6968 58.6781 16.3223 59.3382ZM72.3089 23.7093C68.0607 31.8814 72.9748 42.1937 80.1332 47.5497C85.004 51.897 94.0558 53.5 98.1295 47.7232C103.087 39.2371 97.1982 27.8679 89.2984 22.7926C84.3009 19.0596 76.0292 18.1931 72.3089 23.7093ZM32.6411 93.7542C30.5951 97.0879 30.6971 101.638 33.5754 104.861C41.2825 113.477 56.7996 114.821 64.5959 106.365C67.735 102.766 66.6518 97.2946 63.387 93.9691C56.3903 86.8783 44.1742 85.4502 35.9938 90.5505C34.5742 91.329 33.4408 92.4488 32.6411 93.7542ZM70.8573 68.6457C66.9193 75.2254 66.3679 83.9815 68.9635 91.337C72.2072 99.5474 76.9343 107.517 83.6301 113.551C88.0103 118.623 96.732 118.347 100.15 112.751C104.409 106.109 103.084 97.4014 106.77 90.4668C109.297 84.2221 115.447 80.9692 120.548 77.0551C125.113 73.8564 127.998 67.3783 124.459 62.2149C120.543 57.4728 113.687 56.8624 107.988 56.3434C98.1983 56.3903 87.8552 56.5302 79.08 60.9851C75.5141 62.7407 72.7818 65.4321 70.8573 68.6457Z" fill="#3894D9"/>
</g>
<defs>
<clipPath id="clip0_264_2564">
<rect width="100" height="100" fill="white" transform="translate(0 85.6898) rotate(-58.97)"/>
</clipPath>
</defs>
</svg>
