<svg width="36" height="36" viewBox="0 0 36 36" fill="none" xmlns="http://www.w3.org/2000/svg">
<path d="M28.5 4.5H7.5C5.8425 4.5 4.5 5.8425 4.5 7.5V28.5C4.5 30.1575 5.8425 31.5 7.5 31.5H28.5C30.1575 31.5 31.5 30.1575 31.5 28.5V7.5C31.5 5.8425 30.1575 4.5 28.5 4.5ZM13.5 25.5H9.7155V15H13.5V25.5ZM11.541 13.0755C10.3845 13.0755 9.612 12.3045 9.612 11.2755C9.612 10.2465 10.383 9.4755 11.6685 9.4755C12.825 9.4755 13.5975 10.2465 13.5975 11.2755C13.5975 12.3045 12.8265 13.0755 11.541 13.0755ZM27 25.5H23.337V19.761C23.337 18.174 22.3605 17.808 21.9945 17.808C21.6285 17.808 20.4075 18.0525 20.4075 19.761C20.4075 20.0055 20.4075 25.5 20.4075 25.5H16.623V15H20.4075V16.4655C20.895 15.6105 21.8715 15 23.703 15C25.5345 15 27 16.4655 27 19.761V25.5Z" fill="#A9A9A9"/>
</svg>
