<svg width="113" height="113" viewBox="0 0 113 113" fill="none" xmlns="http://www.w3.org/2000/svg">
<g clip-path="url(#clip0_264_2601)">
<path d="M66.6639 4.23791C66.456 4.26782 66.2421 4.30653 66.0315 4.35161C57.7553 6.97597 54.3083 16.8906 54.7044 25.1858C54.6892 32.7628 59.0979 41.9202 67.1891 42.5641C68.3613 42.6411 69.5331 42.3834 70.6088 41.9233C79.6603 37.3846 82.3813 25.1691 79.7519 15.6891C78.5384 9.50175 73.1255 3.30804 66.6639 4.23791ZM30.7864 9.32271C25.533 10.1444 22.1521 16.2302 21.9974 21.5568C21.5851 32.1235 27.7879 44.3767 38.5842 46.2945C39.5851 46.3864 40.591 46.2777 41.5523 45.9924C48.4039 43.8645 50.309 35.318 49.1563 28.7671C47.8124 20.104 42.1536 10.6221 33.1454 9.31193C32.3219 9.19671 31.5363 9.20541 30.7864 9.32271ZM93.5072 31.0025C84.4658 32.7588 79.4473 43.0207 79.7056 51.9573C79.331 58.4752 83.7057 66.5602 90.7629 66.157C100.491 64.7609 105.731 53.0784 104.792 43.7359C104.607 37.5008 100.141 30.4848 93.5072 31.0025ZM13.987 43.5066C10.104 43.978 6.60426 46.8881 5.8707 51.1466C3.91761 62.5404 12.5167 75.5266 23.9873 76.3719C28.7573 76.5919 32.3682 72.3405 32.9417 67.7157C34.1423 57.8267 27.6626 47.3727 18.5808 44.1394C17.0884 43.512 15.5065 43.321 13.987 43.5066ZM57.4173 57.8148C49.8158 58.8236 42.6164 63.8379 38.4711 70.4452C34.0595 78.0918 30.7587 86.7504 30.1988 95.7463C28.9519 102.33 34.5923 108.988 41.0998 108.185C48.9503 107.388 54.9442 100.935 62.6668 99.5079C69.1288 97.6032 75.5008 100.395 81.7387 101.956C87.0822 103.54 93.9492 101.77 95.7916 95.7878C97.069 89.7718 93.283 84.0238 90.1446 79.2383C84.0191 71.6016 77.4764 63.5895 68.5301 59.489C64.9375 57.7886 61.1306 57.3231 57.4173 57.8148Z" fill="white"/>
</g>
<defs>
<clipPath id="clip0_264_2601">
<rect width="100" height="100" fill="white" transform="translate(0 12.9315) rotate(-7.43)"/>
</clipPath>
</defs>
</svg>
