<svg width="32" height="32" viewBox="0 0 32 32" fill="none" xmlns="http://www.w3.org/2000/svg">
<g clip-path="url(#clip0_264_2175)">
<path d="M16 0C20.4175 0 24.4187 1.79129 27.3137 4.68634C30.2087 7.5814 32 11.5827 32 16.0003C32 20.4179 30.2087 24.4186 27.3137 27.3137C24.4187 30.2087 20.4175 32 16 32C11.5825 32 7.58125 30.2087 4.68625 27.3137C1.79125 24.4186 0 20.4179 0 16.0003C0 11.5827 1.79125 7.5814 4.68625 4.68634C7.58125 1.79129 11.5825 0 16 0ZM14.8025 8.52829C14.8025 7.86765 15.3394 7.33077 16 7.33077C16.6606 7.33077 17.1975 7.86765 17.1975 8.52829V12.4377C17.1975 13.0984 16.6606 13.6353 16 13.6353C15.3394 13.6353 14.8025 13.0984 14.8025 12.4377V8.52829ZM19.3612 11.8065C18.8506 11.3908 18.7725 10.6383 19.1875 10.1271C19.6031 9.61644 20.3562 9.53831 20.8669 9.95394C21.7581 10.6765 22.4844 11.5915 22.9794 12.6315C23.4588 13.6384 23.7275 14.7653 23.7275 15.9516C23.7275 18.0854 22.8619 20.0179 21.4644 21.4154L21.3913 21.4829C19.9969 22.8417 18.0931 23.6786 16 23.6786C13.8713 23.6786 11.9381 22.8123 10.5387 21.4123C9.13812 20.0179 8.2725 18.0854 8.2725 15.9516C8.2725 14.7709 8.54063 13.6478 9.01875 12.6409C9.51437 11.5977 10.2394 10.6808 11.1256 9.95957C11.6362 9.54394 12.3894 9.62206 12.8044 10.1327C13.22 10.644 13.1419 11.3965 12.6313 11.8121C12.0213 12.309 11.5213 12.9409 11.18 13.6603C10.8519 14.3503 10.6675 15.1284 10.6675 15.9516C10.6675 17.4241 11.2656 18.7572 12.2294 19.7216C13.1906 20.6885 14.5244 21.2835 16 21.2835C17.4475 21.2835 18.7581 20.7098 19.715 19.7804L19.7706 19.7216C20.7344 18.7572 21.3325 17.4241 21.3325 15.9516C21.3325 15.1297 21.1475 14.3522 20.8181 13.6603C20.4764 12.9417 19.9787 12.3084 19.3612 11.8065ZM25.7969 6.20325C23.29 3.69695 19.8256 2.14567 16 2.14567C12.1744 2.14567 8.71 3.69695 6.20312 6.20325C3.69688 8.71017 2.14563 12.1746 2.14563 16.0003C2.14563 19.826 3.69688 23.2898 6.20312 25.7968C8.71 28.3031 12.1744 29.8543 16 29.8543C19.8256 29.8543 23.29 28.3031 25.7969 25.7968C28.3031 23.2898 29.8544 19.826 29.8544 16.0003C29.8544 12.1746 28.3031 8.71017 25.7969 6.20325Z" fill="#D55555"/>
</g>
<defs>
<clipPath id="clip0_264_2175">
<rect width="32" height="32" fill="white"/>
</clipPath>
</defs>
</svg>
